<?xml version="1.0" standalone="no"?>
<!DOCTYPE svg PUBLIC "-//W3C//DTD SVG 20010904//EN"
 "http://www.w3.org/TR/2001/REC-SVG-20010904/DTD/svg10.dtd">
<svg version="1.0" xmlns="http://www.w3.org/2000/svg"
 width="224.000000pt" height="112.000000pt" viewBox="0 0 224.000000 112.000000"
 preserveAspectRatio="xMidYMid meet">

<g transform="translate(0.000000,112.000000) scale(0.100000,-0.100000)"
fill="#000000" stroke="none">
<path d="M33 1113 l-23 -4 0 -555 0 -554 100 0 100 0 0 560 0 560 -77 -1 c-43
-1 -88 -4 -100 -6z"/>
<path d="M240 560 c0 -367 3 -560 10 -560 7 0 10 193 10 560 0 367 -3 560 -10
560 -7 0 -10 -193 -10 -560z"/>
<path d="M300 560 c0 -367 3 -560 10 -560 7 0 10 193 10 560 0 367 -3 560 -10
560 -7 0 -10 -193 -10 -560z"/>
<path d="M350 560 c0 -367 3 -560 10 -560 7 0 10 193 10 560 0 367 -3 560 -10
560 -7 0 -10 -193 -10 -560z"/>
<path d="M450 560 l0 -560 60 0 60 0 0 40 c0 36 -2 40 -25 40 -22 0 -25 4 -25
40 0 22 -4 40 -10 40 -5 0 -10 -18 -10 -40 0 -29 -4 -40 -15 -40 -11 0 -15 11
-15 40 0 22 5 40 10 40 6 0 10 18 10 40 0 29 4 40 15 40 13 0 15 20 15 120 l0
120 25 0 c23 0 25 4 25 40 0 22 -4 40 -10 40 -5 0 -10 18 -10 40 0 22 5 40 10
40 6 0 10 47 10 120 0 73 -4 120 -10 120 -5 0 -10 18 -10 40 0 29 4 40 15 40
11 0 15 -11 15 -40 0 -22 5 -40 10 -40 6 0 10 -73 10 -200 0 -127 -4 -200 -10
-200 -5 0 -10 -18 -10 -40 0 -22 5 -40 10 -40 6 0 10 -18 10 -40 0 -29 4 -40
15 -40 12 0 15 -16 15 -80 0 -47 4 -80 10 -80 6 0 10 18 10 40 0 36 3 40 25
40 23 0 25 4 25 40 0 22 -4 40 -10 40 -5 0 -10 18 -10 40 0 29 4 40 15 40 11
0 15 -11 15 -40 0 -39 1 -40 35 -40 l35 0 0 120 0 120 25 0 c23 0 25 4 25 40
l0 40 -50 0 -50 0 0 40 c0 36 -2 40 -25 40 -22 0 -25 4 -25 40 l0 40 55 0 55
0 0 -40 c0 -33 3 -40 20 -40 17 0 20 7 20 40 0 22 -4 40 -10 40 -5 0 -10 18
-10 40 0 38 -2 40 -30 40 -28 0 -30 2 -30 40 0 36 -2 40 -25 40 -22 0 -25 4
-25 40 0 22 -4 40 -10 40 -5 0 -10 -18 -10 -40 0 -29 -4 -40 -15 -40 -12 0
-15 16 -15 80 0 47 -4 80 -10 80 -6 0 -10 -47 -10 -120 0 -100 3 -120 15 -120
11 0 15 -11 15 -40 0 -33 -3 -40 -20 -40 -17 0 -20 7 -20 40 0 22 -4 40 -10
40 -6 0 -10 47 -10 120 0 73 -4 120 -10 120 -5 0 -10 -18 -10 -40 0 -29 -4
-40 -15 -40 -11 0 -15 11 -15 40 l0 40 -50 0 -50 0 0 -560z m80 360 c0 -33 -3
-40 -20 -40 -17 0 -20 7 -20 40 0 33 3 40 20 40 17 0 20 -7 20 -40z m20 -160
c0 -29 -4 -40 -15 -40 -11 0 -15 11 -15 40 0 29 4 40 15 40 11 0 15 -11 15
-40z m110 -80 c0 -33 -3 -40 -20 -40 -17 0 -20 7 -20 40 0 33 3 40 20 40 17 0
20 -7 20 -40z m-130 -80 c0 -33 -3 -40 -20 -40 -17 0 -20 7 -20 40 0 33 3 40
20 40 17 0 20 -7 20 -40z m200 -40 c0 -64 -3 -80 -15 -80 -11 0 -15 11 -15 40
0 22 -4 40 -10 40 -5 0 -10 18 -10 40 0 36 3 40 25 40 25 0 25 -1 25 -80z
m-50 -40 c0 -22 -4 -40 -10 -40 -5 0 -10 -18 -10 -40 0 -33 -3 -40 -20 -40
-18 0 -20 7 -20 80 l0 80 30 0 c28 0 30 -2 30 -40z m-180 -120 c0 -64 -3 -80
-15 -80 -12 0 -15 16 -15 80 0 64 3 80 15 80 12 0 15 -16 15 -80z"/>
<path d="M710 1080 l0 -40 40 0 40 0 0 -40 c0 -39 1 -40 35 -40 34 0 35 1 35
40 0 36 -2 40 -25 40 -22 0 -25 4 -25 40 l0 40 -50 0 -50 0 0 -40z"/>
<path d="M890 560 c0 -367 3 -560 10 -560 6 0 10 18 10 40 l0 40 40 0 40 0 0
-40 c0 -22 5 -40 10 -40 6 0 10 18 10 40 0 22 -4 40 -10 40 -5 0 -10 18 -10
40 0 29 -4 40 -15 40 -11 0 -15 11 -15 40 0 29 4 40 15 40 13 0 15 20 15 120
0 100 -2 120 -15 120 -11 0 -15 11 -15 40 0 29 -4 40 -15 40 -12 0 -15 16 -15
80 0 73 2 80 20 80 17 0 20 -7 20 -40 0 -22 5 -40 10 -40 6 0 10 -33 10 -80 0
-79 0 -80 25 -80 23 0 25 4 25 40 0 29 -4 40 -15 40 -12 0 -15 16 -15 80 0 64
3 80 15 80 11 0 15 11 15 40 0 36 -2 40 -25 40 -22 0 -25 4 -25 40 0 22 5 40
10 40 6 0 10 18 10 40 l0 40 -50 0 -50 0 0 40 c0 22 5 40 10 40 6 0 10 18 10
40 0 33 -3 40 -20 40 -20 0 -20 -7 -20 -560z m50 280 c0 -29 -4 -40 -15 -40
-11 0 -15 11 -15 40 0 29 4 40 15 40 11 0 15 -11 15 -40z m0 -400 c0 -29 4
-40 15 -40 11 0 15 -11 15 -40 0 -38 -2 -40 -30 -40 l-30 0 0 80 c0 64 3 80
15 80 11 0 15 -11 15 -40z"/>
<path d="M970 1080 c0 -22 5 -40 10 -40 6 0 10 18 10 40 0 22 -4 40 -10 40 -5
0 -10 -18 -10 -40z"/>
<path d="M1020 1040 c0 -47 4 -80 10 -80 6 0 10 33 10 80 0 47 -4 80 -10 80
-6 0 -10 -33 -10 -80z"/>
<path d="M1120 1080 c0 -36 -2 -40 -25 -40 -25 0 -25 -1 -25 -80 0 -64 -3 -80
-15 -80 -11 0 -15 -11 -15 -40 0 -29 4 -40 15 -40 12 0 15 -16 15 -80 0 -64 3
-80 15 -80 11 0 15 -11 15 -40 0 -29 -4 -40 -15 -40 -12 0 -15 -16 -15 -80 0
-47 4 -80 10 -80 6 0 10 18 10 40 0 29 4 40 15 40 11 0 15 -11 15 -40 0 -36 3
-40 25 -40 23 0 25 -4 25 -40 0 -22 -4 -40 -10 -40 -5 0 -10 -18 -10 -40 l0
-40 -45 0 -45 0 0 80 c0 73 -2 80 -20 80 -17 0 -20 -7 -20 -40 0 -22 5 -40 10
-40 6 0 10 -47 10 -120 0 -73 4 -120 10 -120 6 0 10 18 10 40 l0 40 45 0 45 0
0 -40 0 -40 -40 0 -40 0 0 -40 0 -40 50 0 50 0 0 120 c0 73 4 120 10 120 6 0
10 18 10 40 0 29 4 40 15 40 11 0 15 11 15 40 0 29 -4 40 -15 40 -11 0 -15 11
-15 40 0 36 -2 40 -25 40 -25 0 -25 1 -25 80 0 47 -4 80 -10 80 -5 0 -10 18
-10 40 0 29 -4 40 -15 40 -12 0 -15 20 -15 120 l0 120 40 0 40 0 0 -160 0
-160 30 0 30 0 0 -80 c0 -47 4 -80 10 -80 6 0 10 18 10 40 0 36 3 40 25 40
l25 0 0 120 0 120 -35 0 c-34 0 -35 -1 -35 -40 0 -33 -3 -40 -20 -40 -18 0
-20 7 -20 80 l0 80 30 0 c28 0 30 2 30 40 l0 40 -40 0 -40 0 0 80 c0 79 0 80
-25 80 -22 0 -25 -4 -25 -40z"/>
<path d="M1330 560 l0 -560 50 0 50 0 0 40 c0 29 -4 40 -15 40 -11 0 -15 11
-15 40 0 22 -4 40 -10 40 -5 0 -10 -18 -10 -40 0 -29 -4 -40 -15 -40 -11 0
-15 11 -15 40 0 22 5 40 10 40 6 0 10 18 10 40 0 29 4 40 15 40 13 0 15 38 15
280 0 242 -2 280 -15 280 -11 0 -15 11 -15 40 0 29 4 40 15 40 11 0 15 11 15
40 0 29 4 40 15 40 11 0 15 -11 15 -40 0 -22 -4 -40 -10 -40 -5 0 -10 -18 -10
-40 0 -22 5 -40 10 -40 6 0 10 -33 10 -80 0 -47 4 -80 10 -80 6 0 10 33 10 80
0 47 -4 80 -10 80 -5 0 -10 18 -10 40 0 22 5 40 10 40 6 0 10 18 10 40 0 29 4
40 15 40 11 0 15 -11 15 -40 0 -22 -4 -40 -10 -40 -5 0 -10 -18 -10 -40 0 -22
5 -40 10 -40 6 0 10 -33 10 -80 0 -47 -4 -80 -10 -80 -5 0 -10 -18 -10 -40 0
-29 -4 -40 -15 -40 -11 0 -15 -11 -15 -40 0 -29 4 -40 15 -40 11 0 15 -11 15
-40 0 -22 5 -40 10 -40 6 0 10 -18 10 -40 0 -29 4 -40 15 -40 13 0 15 -20 15
-120 l0 -120 25 0 c23 0 25 -4 25 -40 0 -22 5 -40 10 -40 6 0 10 18 10 40 0
22 -4 40 -10 40 -6 0 -10 33 -10 80 0 47 4 80 10 80 6 0 10 18 10 40 0 36 -2
40 -25 40 -22 0 -25 4 -25 40 0 29 -4 40 -15 40 -11 0 -15 11 -15 40 l0 40 40
0 40 0 0 40 c0 36 3 40 25 40 23 0 25 4 25 40 0 22 -4 40 -10 40 -5 0 -10 18
-10 40 0 36 -2 40 -25 40 -25 0 -25 1 -25 80 l0 80 -30 0 c-28 0 -30 2 -30 40
0 22 -4 40 -10 40 -5 0 -10 18 -10 40 0 22 5 40 10 40 6 0 10 18 10 40 0 22
-4 40 -10 40 -5 0 -10 -18 -10 -40 0 -29 -4 -40 -15 -40 -11 0 -15 11 -15 40
0 22 -4 40 -10 40 -5 0 -10 -18 -10 -40 0 -29 -4 -40 -15 -40 -11 0 -15 11
-15 40 0 39 -1 40 -35 40 l-35 0 0 -560z m50 -80 c0 -136 -2 -160 -15 -160
-13 0 -15 24 -15 160 0 136 2 160 15 160 13 0 15 -24 15 -160z m180 120 c0
-29 -4 -40 -15 -40 -11 0 -15 11 -15 40 0 29 4 40 15 40 11 0 15 -11 15 -40z"/>
<path d="M1540 1080 c0 -22 5 -40 10 -40 6 0 10 -18 10 -40 0 -22 5 -40 10
-40 6 0 10 18 10 40 0 29 4 40 15 40 11 0 15 11 15 40 0 39 -1 40 -35 40 -34
0 -35 -1 -35 -40z"/>
<path d="M1770 560 l0 -560 85 0 85 0 0 560 0 560 -85 0 -85 0 0 -560z"/>
<path d="M1980 560 c0 -367 3 -560 10 -560 7 0 10 193 10 560 0 367 -3 560
-10 560 -7 0 -10 -193 -10 -560z"/>
<path d="M2080 560 c0 -367 3 -560 10 -560 7 0 10 193 10 560 0 367 -3 560
-10 560 -7 0 -10 -193 -10 -560z"/>
<path d="M2140 560 c0 -367 3 -560 10 -560 7 0 10 193 10 560 0 367 -3 560
-10 560 -7 0 -10 -193 -10 -560z"/>
<path d="M2225 560 c0 -311 1 -438 2 -283 2 156 2 410 0 565 -1 156 -2 29 -2
-282z"/>
<path d="M1280 960 c0 -47 4 -80 10 -80 6 0 10 33 10 80 0 47 -4 80 -10 80 -6
0 -10 -33 -10 -80z"/>
<path d="M1510 1000 c0 -22 5 -40 10 -40 6 0 10 18 10 40 0 22 -4 40 -10 40
-5 0 -10 -18 -10 -40z"/>
<path d="M1640 1000 c0 -36 -2 -40 -25 -40 -25 0 -25 -1 -25 -80 0 -79 0 -80
25 -80 25 0 25 -1 25 -80 0 -47 4 -80 10 -80 6 0 10 18 10 40 0 29 4 40 15 40
11 0 15 11 15 40 0 22 5 40 10 40 6 0 10 18 10 40 0 29 4 40 15 40 11 0 15 11
15 40 0 29 -4 40 -15 40 -11 0 -15 11 -15 40 0 39 -1 40 -35 40 -34 0 -35 -1
-35 -40z"/>
<path d="M840 840 c0 -22 5 -40 10 -40 6 0 10 18 10 40 0 22 -4 40 -10 40 -5
0 -10 -18 -10 -40z"/>
<path d="M840 680 c0 -22 5 -40 10 -40 6 0 10 18 10 40 0 22 -4 40 -10 40 -5
0 -10 -18 -10 -40z"/>
<path d="M1640 520 c0 -29 -4 -40 -15 -40 -12 0 -15 -16 -15 -80 0 -64 3 -80
15 -80 11 0 15 -11 15 -40 0 -36 -2 -40 -25 -40 -22 0 -25 -4 -25 -40 l0 -40
40 0 40 0 0 -40 c0 -33 3 -40 20 -40 17 0 20 7 20 40 0 29 4 40 15 40 11 0 15
11 15 40 0 36 -2 40 -25 40 -22 0 -25 4 -25 40 0 29 -4 40 -15 40 -11 0 -15
11 -15 40 l0 40 40 0 40 0 0 40 c0 29 -4 40 -15 40 -11 0 -15 11 -15 40 0 39
-1 40 -35 40 -34 0 -35 -1 -35 -40z"/>
<path d="M550 280 c0 -22 -4 -40 -10 -40 -5 0 -10 -18 -10 -40 0 -22 5 -40 10
-40 6 0 10 18 10 40 0 22 5 40 10 40 6 0 10 18 10 40 0 22 -4 40 -10 40 -5 0
-10 -18 -10 -40z"/>
<path d="M790 280 l0 -40 -40 0 -40 0 0 -120 c0 -73 4 -120 10 -120 6 0 10 33
10 80 l0 80 50 0 50 0 0 80 c0 73 -2 80 -20 80 -17 0 -20 -7 -20 -40z"/>
<path d="M1230 280 c0 -22 5 -40 10 -40 6 0 10 -18 10 -40 0 -29 -4 -40 -15
-40 -11 0 -15 11 -15 40 0 22 -4 40 -10 40 -6 0 -10 -33 -10 -80 l0 -80 40 0
40 0 0 -40 c0 -22 5 -40 10 -40 6 0 10 47 10 120 0 100 -2 120 -15 120 -11 0
-15 11 -15 40 0 33 -3 40 -20 40 -17 0 -20 -7 -20 -40z"/>
<path d="M1430 280 c0 -22 -4 -40 -10 -40 -5 0 -10 -18 -10 -40 0 -22 5 -40
10 -40 6 0 10 18 10 40 0 22 5 40 10 40 6 0 10 18 10 40 0 22 -4 40 -10 40 -5
0 -10 -18 -10 -40z"/>
<path d="M660 120 c0 -22 5 -40 10 -40 6 0 10 18 10 40 0 22 -4 40 -10 40 -5
0 -10 -18 -10 -40z"/>
<path d="M600 40 c0 -22 5 -40 10 -40 6 0 10 18 10 40 0 22 -4 40 -10 40 -5 0
-10 -18 -10 -40z"/>
<path d="M810 40 c0 -36 3 -40 25 -40 23 0 25 4 25 40 0 36 -2 40 -25 40 -22
0 -25 -4 -25 -40z"/>
<path d="M1460 40 c0 -22 5 -40 10 -40 6 0 10 18 10 40 0 22 -4 40 -10 40 -5
0 -10 -18 -10 -40z"/>
<path d="M1640 40 c0 -22 5 -40 10 -40 6 0 10 18 10 40 0 22 -4 40 -10 40 -5
0 -10 -18 -10 -40z"/>
</g>
</svg>
